<svg width="75" height="75" viewBox="0 0 75 75" fill="none" xmlns="http://www.w3.org/2000/svg">
<path d="M63.9364 10.9713C56.8586 3.89356 47.4636 0 37.4539 0C27.4441 0 18.0491 3.89356 10.9713 10.9713C3.89356 18.0491 0 27.4441 0 37.4539C0 47.4636 3.89356 56.8586 10.9713 63.9364C18.0491 71.0142 27.4441 74.9078 37.4539 74.9078C47.4636 74.9078 56.8586 71.0142 63.9364 63.9364C71.0142 56.8586 74.9078 47.4636 74.9078 37.4539C74.9078 27.4441 71.0142 18.0491 63.9364 10.9713ZM60.9256 60.9256C54.6518 67.1994 46.3129 70.6516 37.4539 70.6516C28.5948 70.6516 20.256 67.1994 13.9822 60.9256C1.04039 47.9838 1.04039 26.9239 13.9822 13.9822C20.256 7.70831 28.5948 4.25612 37.4539 4.25612C46.3129 4.25612 54.6518 7.70831 60.9256 13.9822C73.8674 26.9239 73.8674 47.9838 60.9256 60.9256Z" fill="#FFFAF2"/>
<path d="M53.9575 20.9495C53.122 20.114 51.7821 20.114 50.9467 20.9495L37.4532 34.443L23.9597 20.9495C23.1242 20.114 21.7843 20.114 20.9489 20.9495C20.1134 21.785 20.1134 23.1249 20.9489 23.9603L34.4423 37.4538L20.9489 50.9473C20.1134 51.7828 20.1134 53.1226 20.9489 53.9581C21.3587 54.3679 21.9104 54.5886 22.4464 54.5886C22.9823 54.5886 23.5341 54.3837 23.9439 53.9581L37.4374 40.4646L50.9309 53.9581C51.3407 54.3679 51.8925 54.5886 52.4284 54.5886C52.9801 54.5886 53.5161 54.3837 53.9259 53.9581C54.7614 53.1226 54.7614 51.7828 53.9259 50.9473L40.464 37.4538L53.9575 23.9603C54.7929 23.1249 54.7929 21.785 53.9575 20.9495Z" fill="#FFFAF2"/>
</svg>
