<svg width="85" height="83" viewBox="0 0 85 83" fill="none" xmlns="http://www.w3.org/2000/svg">
<path d="M40.5459 79.7381C45.1261 79.5555 49.7458 79.5887 54.3458 79.6883C56.6952 79.7381 57.6428 79.1239 57.6428 77.0156C57.5638 54.9706 57.5836 32.9089 57.6428 10.8639C57.6428 8.83868 56.8333 7.95887 54.4248 8.05847C52.7664 8.12487 51.2265 8.04187 49.43 8.05847C44.3957 8.05847 43.9218 7.99207 42.1253 10.7145C41.3356 11.8931 38.7493 12.6567 36.8738 12.8061C33.0043 13.1215 29.0558 12.8559 25.1468 12.9223C21.9881 12.9721 19.8361 11.7437 18.1186 9.58568C17.546 8.87188 17.7829 8.22447 16.7761 8.14147C14.2491 7.94227 10.2019 8.05847 7.6551 8.07507C4.20019 8.09167 3.72637 8.47347 3.72637 11.3287C3.70663 20.4588 3.72637 29.5889 3.72637 38.7356C3.72637 51.2356 3.72637 63.7521 3.72637 76.252C3.72637 79.4559 3.96328 79.6385 7.67485 79.6551C11.9787 79.6717 16.3023 79.5389 20.5864 79.7381H40.5459ZM6.33236 82.9585C2.12724 82.9253 0.0148068 81.1491 0.0148068 77.6298C-0.00493559 55.1698 -0.00493559 32.6931 0.0148068 10.2331C0.0148068 6.61425 2.00879 4.97083 6.29288 4.93763C9.80702 4.90443 13.3212 4.93763 16.7761 4.93763C18.9477 0.521984 19.8559 0.00737786 25.364 0.00737786C29.3717 0.00737786 33.3794 -0.00922232 37.4069 0.00737786C41.6515 0.023978 43.3296 1.18599 44.3957 4.93763C48.0282 4.93763 51.7398 4.90443 55.4316 4.93763C59.3011 4.97083 61.6505 6.87985 61.6702 10.1667C61.7097 32.6267 61.7097 55.1034 61.6702 77.5634C61.6702 80.9333 59.2419 82.9253 55.2737 82.9585C50.3776 82.9917 45.4815 83.0581 40.6051 82.8921L6.33236 82.9585ZM30.6155 3.32742C28.4636 3.32742 26.3314 3.32742 24.1795 3.32742C23.982 3.32742 23.7846 3.34402 23.5872 3.32742C21.8499 3.27761 21.1984 4.00802 21.1391 5.43564C21.0009 8.30747 22.4619 9.73509 25.9168 9.80149C29.0361 9.85129 32.1554 9.85129 35.2747 9.78489C36.321 9.76829 37.4661 9.63548 38.3545 9.22048C40.4669 8.24107 40.7732 6.59765 40.0033 4.93763C39.2333 3.27761 37.9991 3.52662 36.7554 3.39382C34.7416 3.16141 32.6687 3.32742 30.6155 3.32742Z" fill="#FFFAF2"/>
<path d="M84.5925 41.3755C84.5925 44.8284 84.2174 48.3144 84.6715 51.734C85.8165 60.1669 82.2431 67.72 79.0251 75.3561C78.729 76.0367 77.6234 76.9331 76.9325 76.9165C76.202 76.8999 75.1754 75.9703 74.8792 75.2731C73.0235 70.874 71.3059 66.4252 69.5883 61.9929C69.3514 61.3787 69.3119 60.6981 69.2922 60.0507C69.2724 47.4678 69.2724 34.8848 69.2922 22.3019C69.2922 18.9653 71.602 16.442 75.0964 15.7448C78.4526 15.0642 82.0062 16.2594 83.5856 18.8325C84.2174 19.8783 84.5135 21.1731 84.5135 22.3683C84.6517 28.7096 84.5925 35.0342 84.5925 41.3755ZM80.7032 59.1211C80.7032 50.5222 80.7032 42.1059 80.7032 33.6896C78.0973 33.6896 75.7282 33.6896 73.3393 33.6896C73.3393 42.2553 73.3393 50.6218 73.3393 59.1211C75.8071 59.1211 78.117 59.1211 80.7032 59.1211ZM80.8414 29.9878C80.8414 27.1658 81.0191 24.4765 80.7822 21.8039C80.6243 19.9613 79.0844 18.7661 76.8535 18.8491C74.6621 18.9321 73.2604 20.0775 73.2209 22.0363C73.1617 24.6425 73.2011 27.2322 73.2011 29.9712C75.7874 29.9878 78.0775 29.9878 80.8414 29.9878ZM79.9333 62.8064C77.8603 62.8064 76.0835 62.8064 73.9908 62.8064C74.9582 65.1636 75.8664 67.3548 77.0312 70.1768C78.1762 67.305 79.0251 65.1636 79.9333 62.8064Z" fill="#FFFAF2"/>
<path d="M13.6188 50.4531L13.6188 50.4531C13.8246 50.3666 14.0352 50.3125 14.2494 50.3125M13.6188 50.4531L47.8711 50.5453M13.6188 50.4531L13.6183 50.4533L13.6188 50.4531ZM14.2494 50.3125C14.2495 50.3125 14.2497 50.3125 14.2498 50.3125V50.4125L14.2489 50.3125C14.2491 50.3125 14.2492 50.3125 14.2494 50.3125ZM14.2494 50.3125C25.2661 50.2129 36.3025 50.2129 47.3192 50.3125L47.3183 50.4125V50.3125C47.5333 50.3125 47.7252 50.3669 47.9123 50.4542M47.9123 50.4542C47.912 50.454 47.9116 50.4538 47.9113 50.4537L47.8711 50.5453M47.9123 50.4542C47.9127 50.4543 47.913 50.4545 47.9134 50.4547L47.8711 50.5453M47.9123 50.4542C48.6297 50.7693 48.9566 51.3847 48.906 51.9895C48.8556 52.5924 48.4317 53.1676 47.687 53.4119M47.8711 50.5453C49.2333 51.1429 49.0754 52.8527 47.6539 53.3175M47.687 53.4119C47.6876 53.4117 47.6883 53.4114 47.6889 53.4112L47.6539 53.3175M47.687 53.4119C47.6863 53.4121 47.6856 53.4123 47.685 53.4125L47.6539 53.3175M47.687 53.4119L47.6539 53.3175M47.1025 53.5171C47.1029 53.5171 47.1034 53.5171 47.1038 53.5171L47.1011 53.4171V53.5171C47.1016 53.5171 47.102 53.5171 47.1025 53.5171ZM14.3275 53.5337C14.328 53.5337 14.3284 53.5337 14.3288 53.5337V53.4337L14.3263 53.5337C14.3267 53.5337 14.3271 53.5337 14.3275 53.5337ZM13.7834 53.4288L13.8155 53.3341L13.7767 53.4263C13.7778 53.4268 13.779 53.4272 13.7801 53.4277C13.7812 53.4281 13.7823 53.4284 13.7834 53.4288Z" fill="#FFFAF2" stroke="white" stroke-width="0.2"/>
<path d="M13.8923 65.2985C13.7381 65.2982 13.6044 65.2608 13.4736 65.1881C12.91 64.9269 12.6157 64.3362 12.5899 63.7462C12.564 63.1551 12.8065 62.5378 13.3498 62.2239C13.4996 62.1341 13.6746 62.0774 13.8342 62.0773M13.8923 65.2985L38.6707 62.3101M13.8923 65.2985C16.8549 65.3981 19.8292 65.3857 22.8041 65.3732C23.7958 65.3691 24.7875 65.3649 25.779 65.3649C26.7443 65.3649 27.71 65.3686 28.6758 65.3723C31.8159 65.3842 34.9582 65.3962 38.1001 65.2819M13.8923 65.2985L13.8941 65.1985C16.8551 65.2981 19.8272 65.2857 22.8022 65.2732C23.7942 65.2691 24.7866 65.2649 25.779 65.2649C26.7452 65.2649 27.7114 65.2686 28.6776 65.2723C31.8178 65.2842 34.958 65.2961 38.0982 65.1819M13.8342 62.0773C13.8344 62.0773 13.8346 62.0773 13.8348 62.0773V62.1773L13.8336 62.0773C13.8338 62.0773 13.834 62.0773 13.8342 62.0773ZM13.8342 62.0773C21.9687 61.9777 30.1229 61.9777 38.2574 62.0773L38.2561 62.1773V62.0773C38.4185 62.0773 38.5745 62.1357 38.7219 62.2242M38.7219 62.2242C38.7219 62.2241 38.7218 62.2241 38.7218 62.2241L38.6707 62.3101M38.7219 62.2242C38.722 62.2242 38.7221 62.2243 38.7222 62.2243L38.6707 62.3101M38.7219 62.2242C39.2653 62.5467 39.4978 63.1645 39.4615 63.7521C39.4253 64.339 39.1195 64.9215 38.5547 65.1731M38.6707 62.3101C39.6776 62.9077 39.5591 64.6175 38.5128 65.0823C38.3746 65.1487 38.2364 65.1819 38.0982 65.1819M38.5547 65.1731C38.5552 65.1729 38.5556 65.1727 38.5561 65.1724L38.5128 65.0823L38.5534 65.1737C38.5538 65.1735 38.5543 65.1733 38.5547 65.1731ZM38.5547 65.1731C38.4056 65.2446 38.2537 65.2816 38.1001 65.2819M38.1001 65.2819C38.1007 65.2819 38.1012 65.2819 38.1018 65.2818L38.0982 65.1819M38.1001 65.2819C38.0994 65.2819 38.0988 65.2819 38.0982 65.2819V65.1819" fill="#FFFAF2" stroke="white" stroke-width="0.2"/>
<path d="M14.2494 38.5476C14.0352 38.5477 13.8246 38.6017 13.6188 38.6882L13.6188 38.6882L13.6183 38.6884C12.9003 38.9947 12.5582 39.6094 12.5928 40.2179C12.6273 40.8247 13.0354 41.4093 13.7801 41.6628C13.9502 41.7338 14.1395 41.7687 14.3275 41.7688C18.341 41.8684 22.366 41.856 26.3922 41.8435C27.7344 41.8394 29.0767 41.8352 30.4188 41.8352C31.7227 41.8352 33.0278 41.8389 34.334 41.8426C38.5833 41.8545 42.8431 41.8665 47.1025 41.7522C47.2906 41.7521 47.4986 41.7171 47.6869 41.647C48.4316 41.4028 48.8556 40.8275 48.906 40.2247C48.9566 39.6199 48.6297 39.0045 47.9123 38.6893C47.7252 38.602 47.5333 38.5476 47.3183 38.5476V38.6476L47.3192 38.5476C36.3025 38.448 25.2661 38.448 14.2494 38.5476ZM14.2494 38.5476C14.2495 38.5476 14.2497 38.5476 14.2498 38.5476V38.6476L14.2489 38.5476C14.2491 38.5476 14.2492 38.5476 14.2494 38.5476Z" fill="#FFFAF2" stroke="white" stroke-width="0.2"/>
<path d="M13.6188 26.9235L13.6188 26.9235C13.8246 26.837 14.0352 26.7829 14.2494 26.7829M13.6188 26.9235L47.8711 27.0157M13.6188 26.9235L13.6183 26.9237L13.6188 26.9235ZM14.2494 26.7829C14.2495 26.7829 14.2497 26.7829 14.2498 26.7829V26.8829L14.2489 26.7829C14.2491 26.7829 14.2492 26.7829 14.2494 26.7829ZM14.2494 26.7829C25.2661 26.6833 36.3025 26.6833 47.3192 26.7829L47.3183 26.8829V26.7829C47.5333 26.7829 47.7252 26.8373 47.9123 26.9246M47.9123 26.9246C47.912 26.9244 47.9116 26.9242 47.9113 26.9241L47.8711 27.0157M47.9123 26.9246C47.9127 26.9247 47.913 26.9249 47.9134 26.9251L47.8711 27.0157M47.9123 26.9246C48.6297 27.2397 48.9566 27.8551 48.906 28.4599C48.8556 29.0628 48.4317 29.638 47.687 29.8823M47.8711 27.0157C49.2333 27.6133 49.0754 29.3231 47.6539 29.7879M47.687 29.8823C47.6876 29.8821 47.6883 29.8818 47.6889 29.8816L47.6539 29.7879M47.687 29.8823C47.6863 29.8825 47.6856 29.8827 47.685 29.8829L47.6539 29.7879M47.687 29.8823L47.6539 29.7879M47.1025 29.9875C47.1029 29.9875 47.1034 29.9875 47.1038 29.9875L47.1011 29.8875V29.9875C47.1016 29.9875 47.102 29.9875 47.1025 29.9875ZM14.3275 30.0041C14.328 30.0041 14.3284 30.0041 14.3288 30.0041V29.9041L14.3263 30.0041C14.3267 30.0041 14.3271 30.0041 14.3275 30.0041ZM13.7834 29.8992L13.8155 29.8045L13.7767 29.8967C13.7778 29.8972 13.779 29.8976 13.7801 29.8981C13.7812 29.8985 13.7823 29.8988 13.7834 29.8992Z" fill="#FFFAF2" stroke="white" stroke-width="0.2"/>
</svg>
