<svg width="75" height="83" viewBox="0 0 75 83" fill="none" xmlns="http://www.w3.org/2000/svg">
<path d="M62.7445 24.4031H37.365C36.3916 24.4031 35.6025 25.1219 35.6025 26.0086C35.6025 26.8953 36.3916 27.6141 37.365 27.6141H62.7445C63.7179 27.6141 64.5069 26.8953 64.5069 26.0086C64.5069 25.1219 63.7179 24.4031 62.7445 24.4031Z" fill="#FFFAF2"/>
<path d="M56.5749 32.5799C56.2471 32.2813 55.7924 32.1095 55.3288 32.1095C54.8653 32.1095 54.4106 32.2813 54.0828 32.5799C53.755 32.8786 53.5664 33.2928 53.5664 33.715C53.5664 34.1372 53.755 34.5515 54.0828 34.8501C54.4106 35.1487 54.8653 35.3205 55.3288 35.3205C55.7924 35.3205 56.2471 35.1487 56.5749 34.8501C56.9027 34.5515 57.0913 34.1372 57.0913 33.715C57.0913 33.2928 56.9027 32.8786 56.5749 32.5799Z" fill="#FFFAF2"/>
<path d="M38.6086 7.37407C38.2808 7.07546 37.8261 6.90367 37.3625 6.90367C36.899 6.90367 36.4443 7.07546 36.1165 7.37407C35.7887 7.67269 35.6001 8.0869 35.6001 8.50914C35.6001 8.93137 35.7887 9.34558 36.1165 9.6442C36.4443 9.94282 36.899 10.1146 37.3625 10.1146C37.8261 10.1146 38.2808 9.94282 38.6086 9.6442C38.9364 9.34558 39.125 8.93137 39.125 8.50914C39.125 8.0869 38.9364 7.67269 38.6086 7.37407Z" fill="#FFFAF2"/>
<path d="M47.9179 32.1094H37.365C36.3916 32.1094 35.6025 32.8281 35.6025 33.7148C35.6025 34.6015 36.3916 35.3203 37.365 35.3203H47.9179C48.8913 35.3203 49.6804 34.6015 49.6804 33.7148C49.6804 32.8281 48.8913 32.1094 47.9179 32.1094Z" fill="#FFFAF2"/>
<path d="M62.7445 41.742H37.365C36.3916 41.742 35.6025 42.4608 35.6025 43.3475C35.6025 44.2342 36.3916 44.953 37.365 44.953H62.7445C63.7179 44.953 64.5069 44.2342 64.5069 43.3475C64.5069 42.4608 63.7179 41.742 62.7445 41.742Z" fill="#FFFAF2"/>
<path d="M56.5749 49.9188C56.2471 49.6202 55.7924 49.4484 55.3288 49.4484C54.8653 49.4484 54.4106 49.6202 54.0828 49.9188C53.755 50.2174 53.5664 50.6317 53.5664 51.0539C53.5664 51.4761 53.755 51.8903 54.0828 52.189C54.4106 52.4876 54.8653 52.6594 55.3288 52.6594C55.7924 52.6594 56.2471 52.4876 56.5749 52.189C56.9027 51.8903 57.0913 51.4761 57.0913 51.0539C57.0913 50.6317 56.9027 50.2174 56.5749 49.9188Z" fill="#FFFAF2"/>
<path d="M47.9179 49.4483H37.365C36.3916 49.4483 35.6025 50.167 35.6025 51.0537C35.6025 51.9404 36.3916 52.6592 37.365 52.6592H47.9179C48.8913 52.6592 49.6804 51.9404 49.6804 51.0537C49.6804 50.167 48.8913 49.4483 47.9179 49.4483Z" fill="#FFFAF2"/>
<path d="M62.7445 59.0811H37.365C36.3916 59.0811 35.6025 59.7998 35.6025 60.6865C35.6025 61.5732 36.3916 62.292 37.365 62.292H62.7445C63.7179 62.292 64.5069 61.5732 64.5069 60.6865C64.5069 59.7998 63.7179 59.0811 62.7445 59.0811Z" fill="#FFFAF2"/>
<path d="M56.5749 67.2579C56.2471 66.9593 55.7924 66.7875 55.3288 66.7875C54.8653 66.7875 54.4106 66.9593 54.0828 67.2579C53.755 67.5565 53.5664 67.9707 53.5664 68.3929C53.5664 68.8152 53.755 69.2294 54.0828 69.528C54.4106 69.8266 54.8653 69.9984 55.3288 69.9984C55.7924 69.9984 56.2471 69.8266 56.5749 69.528C56.9027 69.2294 57.0913 68.8152 57.0913 68.3929C57.0913 67.9707 56.9027 67.5565 56.5749 67.2579Z" fill="#FFFAF2"/>
<path d="M47.9179 66.7874H37.365C36.3916 66.7874 35.6025 67.5061 35.6025 68.3928C35.6025 69.2795 36.3916 69.9983 37.365 69.9983H47.9179C48.8913 69.9983 49.6804 69.2795 49.6804 68.3928C49.6804 67.5061 48.8913 66.7874 47.9179 66.7874Z" fill="#FFFAF2"/>
<path d="M66.1341 6.26148H52.6728C50.7269 4.57237 48.0965 3.53202 45.2027 3.53202H43.6588C42.4785 1.4035 40.0536 0 37.3635 0C34.6735 0 32.2488 1.4035 31.0683 3.53202H29.5207C26.6269 3.53202 23.9967 4.57237 22.0508 6.26148H8.59331C3.85499 6.26148 0 9.77311 0 14.0894V74.3721C0 78.6884 3.85499 82.2 8.59331 82.2H66.134C70.8723 82.2 74.7273 78.6884 74.7273 74.3721V14.0894C74.7275 9.77311 70.8725 6.26148 66.1341 6.26148ZM29.5209 6.74296H32.2678C33.0606 6.74296 33.7557 6.26083 33.9666 5.56486C34.387 4.17887 35.7839 3.21093 37.3637 3.21093C38.9436 3.21093 40.3405 4.17887 40.7607 5.56486C40.9716 6.26083 41.6669 6.74296 42.4595 6.74296H45.2027C49.0281 6.74296 52.1769 9.43211 52.4911 12.8439H22.2325C22.5467 9.43211 25.6957 6.74296 29.5209 6.74296ZM71.2026 74.3722C71.2026 76.918 68.9288 78.9892 66.1341 78.9892H8.59331C5.7986 78.9892 3.52488 76.918 3.52488 74.3722V14.0894C3.52488 11.5436 5.7986 9.47241 8.59331 9.47241H19.5816C19.0042 10.6784 18.6819 12.0081 18.6819 13.4058V14.4494C18.6819 15.336 19.4709 16.0548 20.4443 16.0548H54.2794C55.2528 16.0548 56.0419 15.336 56.0419 14.4494V13.4058C56.0419 12.0082 55.7195 10.6784 55.1422 9.47241H66.1341C68.9288 9.47241 71.2026 11.5436 71.2026 14.0894V74.3722Z" fill="#FFFAF2"/>
<path d="M26.1578 24.0171C25.4696 23.3902 24.3536 23.3902 23.6653 24.017L16.1288 30.8824L13.8071 28.7674C13.1189 28.1406 12.0029 28.1406 11.3145 28.7674C10.6263 29.3943 10.6263 30.4109 11.3145 31.038L14.8826 34.2882C15.2268 34.6018 15.6778 34.7585 16.1288 34.7585C16.5798 34.7585 17.031 34.6018 17.375 34.2882L26.1578 26.2877C26.846 25.6608 26.846 24.6442 26.1578 24.0171Z" fill="#FFFAF2"/>
<path d="M21.8545 59.0811H13.3948C12.4214 59.0811 11.6323 59.7998 11.6323 60.6865V68.3928C11.6323 69.2795 12.4214 69.9982 13.3948 69.9982H21.8545C22.8279 69.9982 23.6169 69.2795 23.6169 68.3928V60.6865C23.6169 59.7998 22.8279 59.0811 21.8545 59.0811ZM20.092 66.7873H15.1572V62.292H20.092V66.7873Z" fill="#FFFAF2"/>
<path d="M21.8545 41.742H13.3948C12.4214 41.742 11.6323 42.4608 11.6323 43.3475V51.0537C11.6323 51.9404 12.4214 52.6592 13.3948 52.6592H21.8545C22.8279 52.6592 23.6169 51.9404 23.6169 51.0537V43.3475C23.6169 42.4608 22.8279 41.742 21.8545 41.742ZM20.092 49.4483H15.1572V44.953H20.092V49.4483Z" fill="#FFFAF2"/>
</svg>
