<svg width="86" height="77" viewBox="0 0 86 77" fill="none" xmlns="http://www.w3.org/2000/svg">
<path d="M3 0C1.34315 0 0 1.34315 0 3V59.6569C0 61.3138 1.34315 62.6569 3 62.6569H40.2871V71.8579H15.0092V77H70.9908V71.8579H45.3456V62.6569H83C84.6569 62.6569 86 61.3138 86 59.6569V3C86 1.34315 84.6569 0 83 0H3ZM80.9415 55.5148C80.9415 56.6194 80.0461 57.5148 78.9415 57.5148H7.05848C5.95392 57.5148 5.05849 56.6194 5.05849 55.5148V50.7755H40.4736V54.1452H45.5321V50.7755H80.9415V55.5148ZM5.05849 45.6334V7.14206C5.05849 6.03749 5.95392 5.14206 7.05849 5.14206H78.9415C80.0461 5.14206 80.9415 6.03749 80.9415 7.14206V45.6334H5.05849Z" fill="#FFFAF2"/>
<path d="M23.9487 17.2822H21.4195C14.8266 17.2822 9.46289 22.7345 9.46289 29.4363C9.46289 36.1371 14.8266 41.5887 21.4195 41.5887C28.0124 41.5887 33.376 36.1371 33.376 29.4363V26.8653H23.9487V17.2822ZM27.8372 32.0072C26.8261 34.6045 24.3305 36.4465 21.4195 36.4465C17.6158 36.4465 14.5214 33.3016 14.5214 29.4362C14.5214 26.4769 16.3342 23.9398 18.8902 22.9123V32.0072H27.8372Z" fill="#FFFAF2"/>
<path d="M29.5058 9.06204H26.9766V23.7872H41.4624V21.2162C41.4624 14.5143 36.0987 9.06204 29.5058 9.06204V9.06204ZM32.035 18.645V14.6921C33.8075 15.4046 35.2227 16.8432 35.9238 18.645H32.035Z" fill="#FFFAF2"/>
<path d="M49.0723 18.8091H54.1308V26.0157H49.0723V18.8091Z" fill="#FFFAF2"/>
<path d="M49.0723 10.8675H54.1308V14.5473H49.0723V10.8675Z" fill="#FFFAF2"/>
<path d="M59.1909 18.8091H64.2494V26.0157H59.1909V18.8091Z" fill="#FFFAF2"/>
<path d="M59.1909 10.8675H64.2494V14.5473H59.1909V10.8675Z" fill="#FFFAF2"/>
<path d="M69.3066 18.8091H74.3651V26.0157H69.3066V18.8091Z" fill="#FFFAF2"/>
<path d="M69.3066 10.8675H74.3651V14.5473H69.3066V10.8675Z" fill="#FFFAF2"/>
<path d="M72.6343 29.1502L65.4961 34.3565L59.5475 30.913L50.2974 36.5748L52.9065 40.98L59.6188 36.8717L65.8106 40.4558L75.5832 33.3281L72.6343 29.1502Z" fill="#FFFAF2"/>
</svg>
