<svg width="76" height="83" viewBox="0 0 76 83" fill="none" xmlns="http://www.w3.org/2000/svg">
<path d="M0.0187595 13.5818C0.0187595 13.1503 0.0937956 12.7189 0.262627 12.3062C1.83839 8.29173 4.61473 6.60341 8.4791 6.82852C10.43 6.94107 12.381 6.82852 14.3507 6.84728C16.6956 6.86604 18.9467 6.97859 21.0852 5.21524C22.1545 4.33356 23.8428 4.50239 25.2122 4.07093C25.8312 3.88334 26.5628 3.5832 26.9568 3.03919C29.2641 0.00021631 33.6538 -0.206133 36.0549 2.7578C35.0607 3.9021 34.3103 5.25276 32.4907 4.05218C31.2526 3.24554 29.6393 4.22101 29.0578 5.83429C28.6076 7.05363 27.9135 7.35377 26.9005 7.41005C25.5686 7.48509 24.1992 7.44757 22.9423 7.87903C20.785 8.62939 19.3781 10.3552 19.0029 13.3004H29.8081C29.0953 15.7954 28.5138 16.5457 26.2064 16.5457C23.4301 16.5457 20.6537 16.5645 17.8774 16.5457C16.2453 16.5457 15.7389 15.9642 15.8326 14.0508C15.9077 12.7564 16.1703 11.4808 16.3579 10.0738C13.1876 10.0738 10.0549 9.96128 6.92209 10.1114C4.57721 10.2239 3.07649 12.2499 3.07649 14.97C3.07649 34.667 3.07649 54.364 3.07649 74.061C3.07649 77.0625 4.78356 78.9009 7.5599 78.9196C14.5008 78.9384 21.4416 78.9196 28.4012 78.9196C37.4618 78.9196 46.5037 78.9196 55.5643 78.9196C58.9597 78.9196 60.498 77.1563 60.498 73.2356C60.498 65.188 60.498 57.1403 60.498 49.0927C60.498 49.0927 60.8919 45.7161 63.4994 44.7406C63.5182 45.4159 63.5745 46.035 63.5745 46.6728C63.5745 54.908 63.4056 63.1245 63.6307 71.341C63.7433 75.2991 62.9929 78.4131 60.7231 80.4954C59.5225 81.5834 57.9467 82.1649 56.3335 82.1649H6.92209C5.83407 82.1649 4.7648 81.8836 3.84561 81.302C3.82685 81.2833 3.80809 81.2645 3.77057 81.2645C1.36941 79.6887 0 76.9499 0 74.061L0.0187595 13.5818Z" fill="#FFFAF2"/>
<path d="M53.3713 44.3467C41.9095 44.6468 31.2356 35.3048 31.123 22.2673C31.0104 10.0176 41.1591 -0.0560426 53.4463 0.000234659C65.0769 0.0565119 75.6195 9.09838 75.582 22.2485C75.5445 35.7925 64.4391 44.6656 53.3713 44.3467ZM53.4463 3.17052C43.7291 2.75782 34.4246 11.0493 34.2558 21.9296C34.0869 31.8719 41.9095 41.2514 53.39 41.4015C63.7263 41.5328 72.5243 32.7161 72.5243 22.4361C72.5055 10.8242 62.8633 2.83285 53.4463 3.17052Z" fill="#FFFAF2"/>
<path d="M29.1905 33.5037C29.5844 34.5542 28.8153 35.661 27.7085 35.661C24.5007 35.661 21.3679 35.661 18.2352 35.661C16.3405 35.661 14.4271 35.661 12.5324 35.661C12.0634 35.661 11.5569 35.7548 11.163 35.5297C11.0692 35.4734 10.9942 35.4171 10.9004 35.3609C10.0187 34.7043 10.0562 33.2974 11.0129 32.7533H11.0317C11.5569 32.472 12.2323 32.472 12.8326 32.472C17.4098 32.4532 21.9682 32.4532 26.5454 32.4532C28.2525 32.4532 28.7965 32.4532 29.1905 33.5037Z" fill="#FFFAF2"/>
<path d="M39.677 44.6841C40.2773 45.7346 39.0955 46.8414 37.3697 46.8414C32.3797 46.8414 27.5211 46.8414 22.6438 46.8414C19.6799 46.8414 16.7347 46.8414 13.7707 46.8414C13.0579 46.8414 12.2325 46.9352 11.651 46.7101C11.5197 46.6538 11.3883 46.5975 11.257 46.5412C9.88761 45.8847 9.94389 44.4777 11.4259 43.9337H11.4446C12.2513 43.6524 13.3018 43.6524 14.2397 43.6524C21.3494 43.6336 28.4591 43.6336 35.5688 43.6336C38.2513 43.6336 39.058 43.6336 39.677 44.6841Z" fill="#FFFAF2"/>
<path d="M49.1864 55.8649C49.993 56.9154 48.4173 58.0222 46.1287 58.0222C39.5442 58.0222 33.0911 58.0222 26.6567 58.0222C22.7549 58.0222 18.8342 58.0222 14.9323 58.0222C13.9944 58.0222 12.9063 58.116 12.1185 57.8909C11.9309 57.8346 11.762 57.7971 11.5932 57.7221C10.6177 57.3281 10.9179 55.5085 11.8371 55.1146C11.8558 55.1146 11.8558 55.1146 11.8746 55.1146C12.9439 54.8332 14.332 54.8332 15.5701 54.8332C24.9684 54.8144 34.3667 54.8144 43.7838 54.8144C47.273 54.7957 48.361 54.7957 49.1864 55.8649Z" fill="#FFFAF2"/>
<path d="M38.7943 65.0568C39.3758 66.1073 38.2315 67.2141 36.562 67.2141C31.7221 67.2141 27.0136 67.2141 22.2863 67.2141C19.4162 67.2141 16.5648 67.2141 13.6947 67.2141C13.0006 67.2141 12.2127 67.3079 11.6312 67.0828C11.4999 67.0265 11.3685 66.9702 11.2372 66.9139C9.90534 66.2574 9.96162 64.8504 11.4061 64.3064H11.4248C12.2127 64.025 13.2257 64.025 14.1261 64.025C21.0107 64.0063 27.914 64.0063 34.7986 64.0063C37.3874 63.9875 38.194 63.9875 38.7943 65.0568Z" fill="#FFFAF2"/>
<path d="M64.5472 11.0715C63.9909 10.5153 63.0987 10.5153 62.5423 11.0715L53.557 20.0559L44.5716 11.0715C44.0152 10.5153 43.123 10.5153 42.5667 11.0715C42.0103 11.6278 42.0103 12.52 42.5667 13.0762L51.552 22.0606L42.5667 31.0449C42.0103 31.6012 42.0103 32.4933 42.5667 33.0496C42.8396 33.3225 43.207 33.4694 43.5639 33.4694C43.9208 33.4694 44.2882 33.333 44.5611 33.0496L53.5465 24.0653L62.5318 33.0496C62.8048 33.3225 63.1721 33.4694 63.529 33.4694C63.8964 33.4694 64.2533 33.333 64.5263 33.0496C65.0826 32.4933 65.0826 31.6012 64.5263 31.0449L55.5619 22.0606L64.5472 13.0762C65.1036 12.52 65.1036 11.6278 64.5472 11.0715Z" fill="#FFFAF2"/>
</svg>
