<svg width="76" height="76" viewBox="0 0 76 76" fill="none" xmlns="http://www.w3.org/2000/svg">
<path d="M64.8702 49.1298C60.7313 44.9911 55.8049 41.9272 50.43 40.0725C56.1867 36.1076 59.9688 29.472 59.9688 21.9688C59.9688 9.85521 50.1135 0 38 0C25.8865 0 16.0313 9.85521 16.0313 21.9688C16.0313 29.472 19.8133 36.1076 25.5701 40.0725C20.1952 41.9272 15.2689 44.9911 11.13 49.1298C4.65638 55.6036 0.806022 64.0015 0.113286 73.0339C-0.0120937 74.6687 1.32915 76 2.96875 76V76C4.60835 76 5.92307 74.6665 6.07352 73.0339C7.57503 56.7397 21.3206 43.9375 38 43.9375C54.6794 43.9375 68.425 56.7397 69.9265 73.0339C70.0769 74.6665 71.3917 76 73.0313 76V76C74.6708 76 76.0121 74.6687 75.8867 73.0339C75.194 64.0015 71.3436 55.6036 64.8702 49.1298ZM38 38C29.1604 38 21.9688 30.8085 21.9688 21.9688C21.9688 13.129 29.1604 5.9375 38 5.9375C46.8396 5.9375 54.0313 13.129 54.0313 21.9688C54.0313 30.8085 46.8396 38 38 38Z" fill="#FFFAF2"/>
</svg>
